<svg width="60" height="60" viewBox="0 0 60 60" fill="none" xmlns="http://www.w3.org/2000/svg">
<path d="M9.75 38.9999C9.9075 35.8574 11.2275 34.2869 12.681 32.8334L32.727 12.7874L38.028 18.0884L9.7575 46.1594C9.7545 44.6879 9.75 42.3074 9.75 38.9999Z" fill="#B6DCFE"/>
<path d="M32.727 13.8481L36.966 18.0871L10.5045 44.3625C10.5015 42.9931 10.5 41.2305 10.4985 39.075C10.644 36.1575 11.814 34.7626 13.212 33.3631L32.727 13.8481ZM32.727 11.7271L12.1515 32.3026C10.581 33.8731 9.171 35.595 9 39C9 45 9.015 47.9551 9.015 47.9551L39.0915 18.0901L32.727 11.7271Z" fill="#4788C7"/>
<path d="M31.374 14.142L33.963 11.553L33.8895 11.163C33.7965 10.6845 33.75 10.2075 33.75 9.75C33.75 5.6145 37.1145 2.25 41.25 2.25C45.3855 2.25 48.75 5.6145 48.75 9.75C48.75 13.8855 45.3855 17.25 41.25 17.25C40.698 17.25 40.1265 17.1825 39.5505 17.049L39.1455 16.9545L36.666 19.434L31.374 14.142ZM41.25 6.2505C39.3195 6.2505 37.7505 7.821 37.7505 9.75C37.7505 11.679 39.321 13.2495 41.25 13.2495C43.179 13.2495 44.7495 11.679 44.7495 9.75C44.7495 7.821 43.1805 6.2505 41.25 6.2505Z" fill="#98CCFD"/>
<path d="M41.25 3C44.9715 3 48 6.0285 48 9.75C48 13.4715 44.9715 16.5 41.25 16.5C40.755 16.5 40.2405 16.4385 39.72 16.3185L38.9085 16.131L38.3205 16.719L36.666 18.3735L32.4345 14.142L34.212 12.3645L34.773 11.8035L34.6245 11.0235C34.542 10.59 34.5 10.161 34.5 9.75C34.5 6.0285 37.5285 3 41.25 3ZM41.25 13.5C43.317 13.5 45 11.817 45 9.75C45 7.683 43.317 6 41.25 6C39.183 6 37.5 7.683 37.5 9.75C37.5 11.817 39.183 13.5 41.25 13.5ZM41.25 1.5C36.693 1.5 33 5.193 33 9.75C33 10.281 33.0555 10.8 33.1515 11.3025L30.3135 14.1405L36.666 20.493L39.381 17.778C39.9825 17.919 40.6065 18 41.25 18C45.807 18 49.5 14.307 49.5 9.75C49.5 5.193 45.807 1.5 41.25 1.5ZM41.25 12C40.0065 12 39 10.992 39 9.75C39 8.508 40.008 7.5 41.25 7.5C42.4935 7.5 43.5 8.508 43.5 9.75C43.5 10.992 42.4935 12 41.25 12Z" fill="#4788C7"/>
<path d="M2.25 29.25H56.25V57.75H2.25V29.25Z" fill="#98CCFD"/>
<path d="M55.5 30V57H3V30H55.5ZM57 28.5H1.5V58.5H57V28.5Z" fill="#4788C7"/>
<path d="M29.25 33C27.9696 33 26.7018 33.2716 25.5188 33.7993C24.3359 34.3269 23.2611 35.1004 22.3557 36.0754C21.4503 37.0504 20.7322 38.2079 20.2422 39.4818C19.7522 40.7557 19.5 42.1211 19.5 43.5C19.5 44.8789 19.7522 46.2443 20.2422 47.5182C20.7322 48.7921 21.4503 49.9496 22.3557 50.9246C23.2611 51.8996 24.3359 52.6731 25.5188 53.2007C26.7018 53.7284 27.9696 54 29.25 54C30.5304 54 31.7982 53.7284 32.9812 53.2007C34.1641 52.6731 35.2389 51.8996 36.1443 50.9246C37.0497 49.9496 37.7678 48.7921 38.2578 47.5182C38.7478 46.2443 39 44.8789 39 43.5C39 42.1211 38.7478 40.7557 38.2578 39.4818C37.7678 38.2079 37.0497 37.0504 36.1443 36.0754C35.2389 35.1004 34.1641 34.3269 32.9812 33.7993C31.7982 33.2716 30.5304 33 29.25 33ZM10.5 39C9.30653 39 8.16193 39.4741 7.31802 40.318C6.47411 41.1619 6 42.3065 6 43.5C6 44.6935 6.47411 45.8381 7.31802 46.682C8.16193 47.5259 9.30653 48 10.5 48C11.6935 48 12.8381 47.5259 13.682 46.682C14.5259 45.8381 15 44.6935 15 43.5C15 42.3065 14.5259 41.1619 13.682 40.318C12.8381 39.4741 11.6935 39 10.5 39ZM48 39C46.8065 39 45.6619 39.4741 44.818 40.318C43.9741 41.1619 43.5 42.3065 43.5 43.5C43.5 44.6935 43.9741 45.8381 44.818 46.682C45.6619 47.5259 46.8065 48 48 48C49.1935 48 50.3381 47.5259 51.182 46.682C52.0259 45.8381 52.5 44.6935 52.5 43.5C52.5 42.3065 52.0259 41.1619 51.182 40.318C50.3381 39.4741 49.1935 39 48 39Z" fill="white"/>
<path d="M18.9719 18.0884L24.2729 12.7874L44.3189 32.8334C45.7724 34.2884 47.0924 35.8574 47.2514 39.0374C47.2514 42.3209 47.2469 44.6924 47.2424 46.1594L18.9719 18.0884Z" fill="#DFF0FE"/>
<path d="M24.2729 13.8481L43.7879 33.3631C45.1859 34.7626 46.3559 36.1575 46.4999 39C46.7189 41.25 46.4984 42.9796 46.4954 44.3625L20.0339 18.0871L24.2729 13.8481ZM24.2729 11.7271L17.9084 18.0916L47.9849 47.9566C47.9864 47.9551 47.9999 45 47.9999 39C47.8289 35.595 46.4189 33.8731 44.8484 32.3026L24.2729 11.7271Z" fill="#4788C7"/>
<path d="M17.8545 16.9545L17.4495 17.049C16.8735 17.1825 16.302 17.25 15.75 17.25C11.6145 17.25 8.25 13.8855 8.25 9.75C8.25 5.6145 11.6145 2.25 15.75 2.25C19.8855 2.25 23.25 5.6145 23.25 9.75C23.25 10.2075 23.2035 10.6845 23.112 11.163L23.0385 11.553L25.6275 14.142L20.3355 19.434L17.8545 16.9545ZM15.75 6.2505C13.8195 6.2505 12.2505 7.821 12.2505 9.75C12.2505 11.679 13.8195 13.2495 15.75 13.2495C17.6805 13.2495 19.2495 11.679 19.2495 9.75C19.2495 7.821 17.6805 6.2505 15.75 6.2505Z" fill="#98CCFD"/>
<path d="M15.75 3C19.4715 3 22.5 6.0285 22.5 9.75C22.5 10.161 22.458 10.59 22.3755 11.022L22.227 11.802L22.788 12.363L24.5655 14.1405L20.334 18.372L18.6795 16.7175L18.0915 16.1295L17.28 16.317C16.7595 16.4385 16.245 16.5 15.75 16.5C12.0285 16.5 9 13.4715 9 9.75C9 6.0285 12.0285 3 15.75 3ZM15.75 13.5C17.817 13.5 19.5 11.817 19.5 9.75C19.5 7.683 17.817 6 15.75 6C13.683 6 12 7.683 12 9.75C12 11.817 13.683 13.5 15.75 13.5ZM15.75 1.5C11.193 1.5 7.5 5.193 7.5 9.75C7.5 14.307 11.193 18 15.75 18C16.3935 18 17.0175 17.919 17.619 17.7795L20.334 20.4945L26.6865 14.142L23.8485 11.304C23.9445 10.8 24 10.281 24 9.75C24 5.193 20.307 1.5 15.75 1.5ZM15.75 12C14.5065 12 13.5 10.992 13.5 9.75C13.5 8.508 14.5065 7.5 15.75 7.5C16.9935 7.5 18 8.508 18 9.75C18 10.992 16.9935 12 15.75 12ZM28.5 21C28.1022 21 27.7206 21.158 27.4393 21.4393C27.158 21.7206 27 22.1022 27 22.5C27 22.8978 27.158 23.2794 27.4393 23.5607C27.7206 23.842 28.1022 24 28.5 24C28.8978 24 29.2794 23.842 29.5607 23.5607C29.842 23.2794 30 22.8978 30 22.5C30 22.1022 29.842 21.7206 29.5607 21.4393C29.2794 21.158 28.8978 21 28.5 21ZM29.25 51C28.8375 51 28.5 50.6625 28.5 50.25V45.75C28.5 45.3375 28.8375 45 29.25 45C29.6625 45 30 45.3375 30 45.75V50.25C30 50.6625 29.6625 51 29.25 51ZM29.25 42C28.8375 42 28.5 41.6625 28.5 41.25V36.75C28.5 36.3375 28.8375 36 29.25 36C29.6625 36 30 36.3375 30 36.75V41.25C30 41.6625 29.6625 42 29.25 42ZM29.25 58.5C28.8375 58.5 28.5 58.1625 28.5 57.75V54.75C28.5 54.3375 28.8375 54 29.25 54C29.6625 54 30 54.3375 30 54.75V57.75C30 58.1625 29.6625 58.5 29.25 58.5ZM29.25 33C28.8375 33 28.5 32.6625 28.5 32.25V29.25C28.5 28.8375 28.8375 28.5 29.25 28.5C29.6625 28.5 30 28.8375 30 29.25V32.25C30 32.6625 29.6625 33 29.25 33Z" fill="#4788C7"/>
</svg>
