<svg width="60" height="60" viewBox="0 0 60 60" fill="none" xmlns="http://www.w3.org/2000/svg">
<path d="M2.27417 44.25C2.69867 37.5675 8.74817 32.25 16.1252 32.25H25.8752C33.2522 32.25 39.3032 37.5675 39.7262 44.25H2.27417Z" fill="#98CCFD"/>
<path d="M25.875 33C32.556 33 38.088 37.5885 38.898 43.5H3.102C3.912 37.5885 9.444 33 16.125 33H25.875ZM25.875 31.5H16.125C8.0475 31.5 1.5 37.5435 1.5 45H40.5C40.5 37.5435 33.9525 31.5 25.875 31.5Z" fill="#4788C7"/>
<path d="M21 35.25C17.457 35.25 16.017 32.259 15.75 31.623V25.2405H26.25V31.623C25.983 32.259 24.543 35.25 21 35.25Z" fill="#DFF0FE"/>
<path d="M25.5 25.9919V31.4654C25.1625 32.1944 23.8695 34.4999 21 34.4999C18.1245 34.4999 16.8315 32.1854 16.5 31.4654V25.9919H25.5ZM27 24.4919H15V31.7654C15 31.7654 16.521 36 21 36C25.479 36 27 31.7654 27 31.7654V24.4919Z" fill="#4788C7"/>
<path d="M29.0355 22.179C27.6765 22.179 26.571 21.0735 26.571 19.713C26.571 18.3555 27.6765 17.2485 29.0355 17.2485C31.3125 17.2485 31.5 17.907 31.5 18.642C31.5 20.1225 30.258 22.179 29.0355 22.179ZM12.9645 22.179C11.742 22.179 10.5 20.1225 10.5 18.6435C10.5 17.9085 10.6875 17.25 12.9645 17.25C14.3235 17.25 15.429 18.3555 15.429 19.7145C15.429 21.0735 14.3235 22.179 12.9645 22.179Z" fill="#98CCFD"/>
<path d="M29.0355 18C30.75 18 30.75 18.327 30.75 18.6435C30.75 19.8735 29.6865 21.429 29.0355 21.429C28.0905 21.429 27.321 20.6595 27.321 19.7145C27.321 18.7695 28.0905 18 29.0355 18ZM12.9645 18C13.9095 18 14.679 18.7695 14.679 19.7145C14.679 20.6595 13.9095 21.429 12.9645 21.429C12.3135 21.429 11.25 19.872 11.25 18.6435C11.25 18.327 11.25 18 12.9645 18ZM29.0355 16.5C27.261 16.5 25.821 17.9385 25.821 19.7145C25.821 21.4905 27.2595 22.929 29.0355 22.929C30.8115 22.929 32.25 20.418 32.25 18.6435C32.25 16.8675 30.8115 16.5 29.0355 16.5ZM12.9645 16.5C11.1885 16.5 9.75 16.8675 9.75 18.6435C9.75 20.418 11.1885 22.929 12.9645 22.929C14.7405 22.929 16.179 21.4905 16.179 19.7145C16.179 17.9385 14.739 16.5 12.9645 16.5Z" fill="#4788C7"/>
<path d="M21 30.75C20.2245 30.75 19.5 30.432 18.96 29.8545L18.822 29.706L18.6285 29.649C15.1665 28.611 12.75 25.3635 12.75 21.75V11.289C12.75 9.33749 14.3385 7.75049 16.2885 7.75049H25.71C27.6615 7.75049 29.2485 9.33899 29.2485 11.289V21.75C29.2485 25.3635 26.832 28.611 23.3715 29.6505L23.178 29.7075L23.04 29.856C22.5 30.432 21.7755 30.75 21 30.75Z" fill="#DFF0FE"/>
<path d="M25.7115 8.50049C27.249 8.50049 28.5 9.75149 28.5 11.2905V21.75C28.5 25.035 26.3025 27.9885 23.157 28.932L22.77 29.049L22.494 29.3445C22.0965 29.7675 21.5655 30 21 30C20.4345 30 19.9035 29.7675 19.5075 29.343L19.2315 29.0475L18.8445 28.9305C15.6975 27.9885 13.5 25.035 13.5 21.75V11.289C13.5 9.75149 14.751 8.49899 16.2885 8.49899H25.7115V8.50049ZM25.7115 7.00049H16.29C13.92 7.00049 12 8.92049 12 11.289V21.75C12 25.821 14.7045 29.256 18.4125 30.3675C19.0605 31.0605 19.977 31.5 21 31.5C22.023 31.5 22.9395 31.0605 23.5875 30.3675C27.2955 29.256 30 25.821 30 21.75V11.289C30 8.92049 28.08 7.00049 25.7115 7.00049Z" fill="#4788C7"/>
<path d="M30.0001 30.75C27.9946 30.75 26.1181 29.418 25.1761 28.6215C26.5576 27.4725 29.2501 24.5655 29.2501 19.365V15.7695C29.2501 11.6565 25.8091 9.6135 25.6621 9.5295L24.9466 9.1155L24.6016 9.87C24.5281 10.0305 22.7341 13.8375 17.6821 14.535C15.5656 14.8275 12.7501 15.6465 12.7501 19.365C12.7501 24.858 15.4111 27.609 16.8196 28.6785C15.9391 29.4675 14.1721 30.75 11.9896 30.75C9.37511 30.75 7.83911 30.198 7.08911 29.8125C8.03711 28.515 9.96461 25.554 9.96461 22.9275C9.96461 21.8295 9.72161 20.703 9.46511 19.512C9.18311 18.2115 8.89361 16.8645 8.89361 15.438C8.89361 7.1835 14.5051 2.25 19.9291 2.25C23.9491 2.25 25.6981 5.073 25.7146 5.1L25.9336 5.463H26.3566C29.6071 5.463 33.1066 7.914 33.1066 13.2945C33.1066 15.027 32.8111 16.8705 32.5231 18.6525C32.2726 20.2155 32.0341 21.6915 32.0341 22.9275C32.0341 25.308 33.9331 27.525 34.9276 28.521C34.0816 29.313 32.2336 30.75 30.0001 30.75Z" fill="#98CCFD"/>
<path d="M19.929 3C23.4645 3 25.0155 5.3985 25.0725 5.4885L25.5105 6.2145H26.358C29.2485 6.2145 32.358 8.43 32.358 13.296C32.358 14.9685 32.067 16.782 31.785 18.534C31.5285 20.1285 31.287 21.6345 31.287 22.929C31.287 25.1895 32.739 27.2385 33.843 28.4715C32.9595 29.169 31.578 30 30 30C28.6155 30 27.267 29.25 26.334 28.5765C27.876 27.051 30 24.093 30 19.365V15.7695C30 11.229 26.2005 8.973 26.0385 8.88L24.5985 8.0445L23.9175 9.5625C23.901 9.5985 22.26 13.143 17.58 13.7895C16.2 13.9815 12 14.5605 12 19.365C12 24.3285 14.0865 27.2055 15.6495 28.665C14.775 29.307 13.485 30 11.9895 30C10.248 30 9.0315 29.745 8.2395 29.4825C9.294 27.9075 10.713 25.3395 10.713 22.9275C10.713 21.7485 10.4625 20.5845 10.1955 19.353C9.9225 18.09 9.6405 16.785 9.6405 15.438C9.6435 7.653 14.8725 3 19.929 3ZM19.929 1.5C13.827 1.5 8.1435 7.0065 8.1435 15.438C8.1435 18.2685 9.2145 20.748 9.2145 22.929C9.2145 26.1075 6 30 6 30C6 30 7.569 31.5 11.9895 31.5C15.5325 31.5 18 28.5585 18 28.5585C18 28.5585 13.5 26.2965 13.5 19.365C13.5 16.461 15.411 15.603 17.7855 15.276C23.3415 14.508 25.2855 10.1775 25.2855 10.1775C25.2855 10.1775 28.5 12.042 28.5 15.7695C28.5 16.974 28.5 17.3865 28.5 19.365C28.5 25.8645 24 28.5585 24 28.5585C24 28.5585 26.799 31.5 30 31.5C33.468 31.5 36 28.5 36 28.5C36 28.5 32.7855 25.7715 32.7855 22.9275C32.7855 20.4 33.8565 16.644 33.8565 13.2945C33.8565 7.614 30.087 4.713 26.3565 4.713C26.3565 4.7145 24.4185 1.5 19.929 1.5Z" fill="#4788C7"/>
<path d="M14.2681 57.75C14.6701 49.4115 21.7411 42.75 30.3751 42.75H41.6251C50.2591 42.75 57.3301 49.4115 57.7321 57.75H14.2681Z" fill="#B6DCFE"/>
<path d="M41.625 43.5C49.584 43.5 56.1495 49.431 56.9235 57H15.0765C15.8505 49.431 22.416 43.5 30.375 43.5H41.625ZM41.625 42H30.375C21.0555 42 13.5 49.3875 13.5 58.5H58.5C58.5 49.3875 50.9445 42 41.625 42Z" fill="#4788C7"/>
<path d="M36 47.25C31.386 47.25 29.556 43.3125 29.25 42.567V34.3635H42.75V42.567C42.444 43.3125 40.614 47.25 36 47.25Z" fill="white"/>
<path d="M42 35.115V42.4125C41.6055 43.2975 39.9105 46.5 36 46.5C32.0835 46.5 30.3885 43.2885 30 42.4125V35.115H42ZM43.5 33.615H28.5V42.708C28.5 42.708 30.4005 48.0015 36 48.0015C41.5995 48.0015 43.5 42.708 43.5 42.708V33.615Z" fill="#4788C7"/>
<path d="M45.6435 30.9645C43.929 30.9645 42.5355 29.571 42.5355 27.858C42.5355 26.145 43.929 24.7515 45.6435 24.7515C48.231 24.7515 48.75 25.449 48.75 26.5725C48.75 28.449 47.214 30.9645 45.6435 30.9645ZM26.3565 30.9645C24.786 30.9645 23.25 28.449 23.25 26.571C23.25 25.4475 23.7705 24.75 26.3565 24.75C28.071 24.75 29.4645 26.1435 29.4645 27.8565C29.4645 29.5695 28.071 30.9645 26.3565 30.9645Z" fill="#B6DCFE"/>
<path d="M45.6435 25.5C48 25.5 48 26.0445 48 26.571C48 28.137 46.656 30.2145 45.6435 30.2145C44.343 30.2145 43.287 29.157 43.287 27.858C43.287 26.559 44.343 25.5 45.6435 25.5ZM26.3565 25.5C27.657 25.5 28.713 26.5575 28.713 27.8565C28.713 29.1555 27.6555 30.213 26.3565 30.213C25.3425 30.213 24 28.1355 24 26.5695C24 26.0445 24 25.5 26.3565 25.5ZM45.6435 24C43.5135 24 41.787 25.7265 41.787 27.8565C41.787 29.9865 43.5135 31.713 45.6435 31.713C47.7735 31.713 49.5 28.701 49.5 26.571C49.5 24.441 47.7735 24 45.6435 24ZM26.3565 24C24.2265 24 22.5 24.441 22.5 26.571C22.5 28.701 24.2265 31.7145 26.3565 31.7145C28.4865 31.7145 30.213 29.988 30.213 27.858C30.213 25.728 28.488 24 26.3565 24Z" fill="#4788C7"/>
<path d="M36 41.25C35.1285 41.25 34.299 40.914 33.66 40.3035L33.525 40.1745L33.345 40.1235C29.1675 38.9445 26.25 35.0895 26.25 30.75V18.546C26.25 16.2 28.158 14.2905 30.504 14.2905H41.496C43.842 14.2905 45.75 16.1985 45.75 18.546V30.75C45.75 35.0895 42.8325 38.9445 38.655 40.1235L38.475 40.1745L38.34 40.3035C37.701 40.914 36.8715 41.25 36 41.25Z" fill="white"/>
<path d="M41.496 15.042C43.428 15.042 45 16.614 45 18.546V30.75C45 34.755 42.306 38.313 38.4495 39.402L38.091 39.504L37.821 39.762C37.323 40.2375 36.6765 40.5 36 40.5C35.3235 40.5 34.677 40.2375 34.179 39.762L33.909 39.504L33.5505 39.402C29.694 38.313 27 34.755 27 30.75V18.546C27 16.614 28.572 15.042 30.504 15.042H41.496ZM41.496 13.542H30.504C27.741 13.542 25.5 15.783 25.5 18.546V30.75C25.5 35.5575 28.734 39.6 33.1425 40.8465C33.8865 41.5575 34.89 42 36 42C37.11 42 38.1135 41.5575 38.8575 40.8465C43.266 39.6 46.5 35.5575 46.5 30.75V18.546C46.5 15.7815 44.259 13.542 41.496 13.542Z" fill="#4788C7"/>
<path d="M45.75 27.75V22.5C45.75 17.274 42.4245 15.8625 42.282 15.8055L41.769 15.5955L41.418 16.026C41.3835 16.0695 37.9245 20.25 33 20.25C32.604 20.25 32.205 20.2365 31.8135 20.2245C31.416 20.211 31.0245 20.199 30.6465 20.199C29.331 20.199 26.25 20.199 26.25 23.9985V27.7485H25.929C25.269 26.589 23.25 22.725 23.25 18.8625C23.25 11.7315 28.4925 6.75 36 6.75C40.617 6.75 42.7485 10.6815 42.8355 10.848L43.014 11.187L43.3935 11.2425C45.693 11.5725 48.75 12.786 48.75 19.5C48.75 23.001 46.7445 26.6445 46.083 27.75H45.75Z" fill="#B6DCFE"/>
<path d="M36 7.5C40.143 7.5 42.093 11.0505 42.171 11.1945L42.5265 11.8755L43.287 11.985C45.4815 12.2985 48 13.437 48 19.5C48 21.5925 47.2275 23.763 46.5 25.341V22.5C46.5 16.776 42.726 15.1755 42.5655 15.111L41.535 14.6925L40.8345 15.558C40.8015 15.5955 37.59 19.5 33 19.5C32.6115 19.5 32.2215 19.488 31.8375 19.4745C31.4325 19.461 31.0335 19.449 30.6465 19.449C29.373 19.449 25.5 19.449 25.5 24V25.2105C24.771 23.5275 24 21.195 24 18.8655C24 12.1725 28.935 7.5 36 7.5ZM36 6C27.96 6 22.5 11.5005 22.5 18.864C22.5 23.742 25.5 28.5 25.5 28.5H27C27 28.5 27 25.3425 27 24C27 21.3135 28.6275 20.949 30.6465 20.949C31.398 20.949 32.2035 21 33 21C38.3595 21 42 16.5 42 16.5C42 16.5 45 17.7195 45 22.5C45 23.976 45 28.5 45 28.5H46.5C46.5 28.5 49.5 23.9445 49.5 19.5C49.5 13.2585 46.9455 10.9935 43.5 10.5C43.5 10.5 41.151 6 36 6Z" fill="#4788C7"/>
</svg>
