<svg width="60" height="60" viewBox="0 0 60 60" fill="none" xmlns="http://www.w3.org/2000/svg">
<path d="M9.75 56.25V3.75H37.1895L50.25 16.8105V56.25H9.75Z" fill="white"/>
<path d="M36.879 4.5L49.5 17.121V55.5H10.5V4.5H36.879ZM37.5 3H9V57H51V16.5L37.5 3Z" fill="#4788C7"/>
<path d="M36.75 17.25V3.75H37.1895L50.25 16.8105V17.25H36.75Z" fill="#DFF0FE"/>
<path d="M37.5 5.121L48.879 16.5H37.5V5.121ZM37.5 3H36V18H51V16.5L37.5 3ZM41.25 25.5H18.75C18.336 25.5 18 25.164 18 24.75C18 24.336 18.336 24 18.75 24H41.25C41.664 24 42 24.336 42 24.75C42 25.164 41.664 25.5 41.25 25.5ZM35.25 30H18.75C18.336 30 18 29.664 18 29.25C18 28.836 18.336 28.5 18.75 28.5H35.25C35.664 28.5 36 28.836 36 29.25C36 29.664 35.664 30 35.25 30ZM41.25 34.5H18.75C18.336 34.5 18 34.164 18 33.75C18 33.336 18.336 33 18.75 33H41.25C41.664 33 42 33.336 42 33.75C42 34.164 41.664 34.5 41.25 34.5ZM35.25 39H18.75C18.336 39 18 38.664 18 38.25C18 37.836 18.336 37.5 18.75 37.5H35.25C35.664 37.5 36 37.836 36 38.25C36 38.664 35.664 39 35.25 39ZM41.25 43.5H18.75C18.336 43.5 18 43.164 18 42.75C18 42.336 18.336 42 18.75 42H41.25C41.664 42 42 42.336 42 42.75C42 43.164 41.664 43.5 41.25 43.5Z" fill="#4788C7"/>
</svg>
