<svg width="60" height="60" viewBox="0 0 60 60" fill="none" xmlns="http://www.w3.org/2000/svg">
<path d="M9.75 56.25V3.75H37.1895L50.25 16.8105V56.25H9.75Z" fill="white"/>
<path d="M36.879 4.5L49.5 17.121V55.5H10.5V4.5H36.879ZM37.5 3H9V57H51V16.5L37.5 3Z" fill="#4788C7"/>
<path d="M36.75 17.25V3.75H37.1895L50.25 16.8105V17.25H36.75Z" fill="#DFF0FE"/>
<path d="M37.5 5.121L48.879 16.5H37.5V5.121ZM37.5 3H36V18H51V16.5L37.5 3ZM36 27H18.75C18.336 27 18 26.664 18 26.25C18 25.836 18.336 25.5 18.75 25.5H36V27ZM36 33H18.75C18.336 33 18 32.664 18 32.25C18 31.836 18.336 31.5 18.75 31.5H36V33ZM36 39H18.75C18.336 39 18 38.664 18 38.25C18 37.836 18.336 37.5 18.75 37.5H36V39ZM36 45H18.75C18.336 45 18 44.664 18 44.25C18 43.836 18.336 43.5 18.75 43.5H36V45Z" fill="#4788C7"/>
<path d="M51 55.4999L49.5 53.9999V44.5979L51 46.0139V55.4999Z" fill="white"/>
<path d="M36.87 34.5059L53.352 50.2184C54.2175 51.0839 54.2175 52.4864 53.352 53.3504C52.4865 54.2159 51.084 54.2159 50.22 53.3504L34.5 36.8774L36.87 34.5059Z" fill="#4788C7"/>
<path d="M35.25 24.75C33.8711 24.75 32.5057 25.0216 31.2318 25.5493C29.9579 26.0769 28.8004 26.8504 27.8254 27.8254C26.8504 28.8004 26.0769 29.9579 25.5493 31.2318C25.0216 32.5057 24.75 33.8711 24.75 35.25C24.75 36.6289 25.0216 37.9943 25.5493 39.2682C26.0769 40.5421 26.8504 41.6996 27.8254 42.6746C28.8004 43.6496 29.9579 44.4231 31.2318 44.9507C32.5057 45.4784 33.8711 45.75 35.25 45.75C36.6289 45.75 37.9943 45.4784 39.2682 44.9507C40.5421 44.4231 41.6996 43.6496 42.6746 42.6746C43.6496 41.6996 44.4231 40.5421 44.9507 39.2682C45.4784 37.9943 45.75 36.6289 45.75 35.25C45.75 33.8711 45.4784 32.5057 44.9507 31.2318C44.4231 29.9579 43.6496 28.8004 42.6746 27.8254C41.6996 26.8504 40.5421 26.0769 39.2682 25.5493C37.9943 25.0216 36.6289 24.75 35.25 24.75Z" fill="#DFF0FE"/>
<path d="M35.25 25.5C40.626 25.5 45 29.874 45 35.25C45 40.626 40.626 45 35.25 45C29.874 45 25.5 40.626 25.5 35.25C25.5 29.874 29.874 25.5 35.25 25.5ZM35.25 24C29.037 24 24 29.037 24 35.25C24 41.463 29.037 46.5 35.25 46.5C41.463 46.5 46.5 41.463 46.5 35.25C46.5 29.037 41.463 24 35.25 24Z" fill="#4788C7"/>
<path d="M27.9494 40.5H37.4999C38.3279 40.5 38.9999 39.828 38.9999 39C38.9999 38.172 38.3279 37.5 37.4999 37.5H26.5454C26.8274 38.595 27.3074 39.6075 27.9494 40.5ZM26.5454 33H37.4999C38.3279 33 38.9999 32.328 38.9999 31.5C38.9999 30.672 38.3279 30 37.4999 30H27.9494C27.3074 30.8925 26.8274 31.905 26.5454 33Z" fill="#4788C7"/>
</svg>
