<svg width="60" height="60" viewBox="0 0 60 60" fill="none" xmlns="http://www.w3.org/2000/svg">
<path d="M48.36 23.25H30C28.7595 23.25 27.75 22.2405 27.75 21V9C27.75 7.7595 28.7595 6.75 30 6.75H55.5C56.7405 6.75 57.75 7.7595 57.75 9V21C57.75 22.2405 56.7405 23.25 55.5 23.25H53.25V29.3625L48.36 23.25Z" fill="#B6DCFE"/>
<path d="M55.5 7.5C56.3265 7.5 57 8.1735 57 9V21C57 21.8265 56.3265 22.5 55.5 22.5H54H52.5V24V27.2235L49.1715 23.0625L48.7215 22.5H48H30C29.1735 22.5 28.5 21.8265 28.5 21V9C28.5 8.1735 29.1735 7.5 30 7.5H55.5ZM55.5 6H30C28.3425 6 27 7.3425 27 9V21C27 22.6575 28.3425 24 30 24H48L54 31.5V24H55.5C57.1575 24 58.5 22.6575 58.5 21V9C58.5 7.3425 57.1575 6 55.5 6Z" fill="#4788C7"/>
<path d="M15 30.75C13.2098 30.75 11.4929 31.4612 10.227 32.727C8.96116 33.9929 8.25 35.7098 8.25 37.5C8.25 39.2902 8.96116 41.0071 10.227 42.273C11.4929 43.5388 13.2098 44.25 15 44.25C16.7902 44.25 18.5071 43.5388 19.773 42.273C21.0388 41.0071 21.75 39.2902 21.75 37.5C21.75 35.7098 21.0388 33.9929 19.773 32.727C18.5071 31.4612 16.7902 30.75 15 30.75Z" fill="white"/>
<path d="M15 31.5C18.309 31.5 21 34.191 21 37.5C21 40.809 18.309 43.5 15 43.5C11.691 43.5 9 40.809 9 37.5C9 34.191 11.691 31.5 15 31.5ZM15 30C10.8585 30 7.5 33.3585 7.5 37.5C7.5 41.6415 10.8585 45 15 45C19.1415 45 22.5 41.6415 22.5 37.5C22.5 33.3585 19.1415 30 15 30Z" fill="#4788C7"/>
<path d="M3.77539 57.75C4.16239 51.8955 9.04939 47.25 14.9999 47.25C20.9504 47.25 25.8389 51.8955 26.2244 57.75H3.77539Z" fill="#B6DCFE"/>
<path d="M15 48C20.28 48 24.663 51.918 25.3935 57H4.6065C5.337 51.918 9.72 48 15 48ZM15 46.5C8.373 46.5 3 51.873 3 58.5H27C27 51.873 21.627 46.5 15 46.5Z" fill="#4788C7"/>
<path d="M45 30.75C43.2098 30.75 41.4929 31.4612 40.227 32.727C38.9612 33.9929 38.25 35.7098 38.25 37.5C38.25 39.2902 38.9612 41.0071 40.227 42.273C41.4929 43.5388 43.2098 44.25 45 44.25C46.7902 44.25 48.5071 43.5388 49.773 42.273C51.0388 41.0071 51.75 39.2902 51.75 37.5C51.75 35.7098 51.0388 33.9929 49.773 32.727C48.5071 31.4612 46.7902 30.75 45 30.75Z" fill="white"/>
<path d="M45 31.5C48.309 31.5 51 34.191 51 37.5C51 40.809 48.309 43.5 45 43.5C41.691 43.5 39 40.809 39 37.5C39 34.191 41.691 31.5 45 31.5ZM45 30C40.8585 30 37.5 33.3585 37.5 37.5C37.5 41.6415 40.8585 45 45 45C49.1415 45 52.5 41.6415 52.5 37.5C52.5 33.3585 49.1415 30 45 30Z" fill="#4788C7"/>
<path d="M33.7754 57.75C34.1624 51.8955 39.0494 47.25 44.9999 47.25C50.9504 47.25 55.8389 51.8955 56.2244 57.75H33.7754Z" fill="#B6DCFE"/>
<path d="M45 48C50.28 48 54.663 51.918 55.3935 57H34.6065C35.337 51.918 39.72 48 45 48ZM45 46.5C38.373 46.5 33 51.873 33 58.5H57C57 51.873 51.627 46.5 45 46.5Z" fill="#4788C7"/>
<path d="M8.25 20.25H4.5C3.2595 20.25 2.25 19.2405 2.25 18V4.5C2.25 3.2595 3.2595 2.25 4.5 2.25H31.5C32.7405 2.25 33.75 3.2595 33.75 4.5V18C33.75 19.2405 32.7405 20.25 31.5 20.25H13.14L8.25 26.3625V20.25Z" fill="#DFF0FE"/>
<path d="M31.5 3C32.3265 3 33 3.6735 33 4.5V18C33 18.8265 32.3265 19.5 31.5 19.5H13.5H12.7785L12.3285 20.0625L9 24.2235V21V19.5H7.5H4.5C3.6735 19.5 3 18.8265 3 18V4.5C3 3.6735 3.6735 3 4.5 3H31.5ZM31.5 1.5H4.5C2.8425 1.5 1.5 2.8425 1.5 4.5V18C1.5 19.6575 2.8425 21 4.5 21H7.5V28.5L13.5 21H31.5C33.1575 21 34.5 19.6575 34.5 18V4.5C34.5 2.8425 33.1575 1.5 31.5 1.5Z" fill="#4788C7"/>
</svg>
