<svg width="60" height="60" viewBox="0 0 60 60" fill="none" xmlns="http://www.w3.org/2000/svg">
<path d="M30 57.75C14.6985 57.75 2.25 45.3015 2.25 30C2.25 14.6985 14.6985 2.25 30 2.25C45.3015 2.25 57.75 14.6985 57.75 30C57.75 45.3015 45.3015 57.75 30 57.75Z" fill="#DFF0FE"/>
<path d="M30 3C44.8875 3 57 15.1125 57 30C57 44.8875 44.8875 57 30 57C15.1125 57 3 44.8875 3 30C3 15.1125 15.1125 3 30 3ZM30 1.5C14.2605 1.5 1.5 14.2605 1.5 30C1.5 45.7395 14.2605 58.5 30 58.5C45.7395 58.5 58.5 45.7395 58.5 30C58.5 14.2605 45.7395 1.5 30 1.5Z" fill="#4788C7"/>
<path d="M30 53.25C17.1795 53.25 6.75 42.8205 6.75 30C6.75 17.1795 17.1795 6.75 30 6.75C42.8205 6.75 53.25 17.1795 53.25 30C53.25 42.8205 42.8205 53.25 30 53.25Z" fill="white"/>
<path d="M30 7.5C42.4065 7.5 52.5 17.5935 52.5 30C52.5 42.4065 42.4065 52.5 30 52.5C17.5935 52.5 7.5 42.4065 7.5 30C7.5 17.5935 17.5935 7.5 30 7.5ZM30 6C16.7445 6 6 16.7445 6 30C6 43.2555 16.7445 54 30 54C43.2555 54 54 43.2555 54 30C54 16.7445 43.2555 6 30 6Z" fill="#4788C7"/>
<path d="M39.9585 15.2849L30 29.9999L37.5 37.4999" stroke="#4788C7" stroke-width="2" stroke-miterlimit="10" stroke-linecap="round"/>
<path d="M30 27.75C29.4033 27.75 28.831 27.9871 28.409 28.409C27.9871 28.831 27.75 29.4033 27.75 30C27.75 30.5967 27.9871 31.169 28.409 31.591C28.831 32.0129 29.4033 32.25 30 32.25C30.5967 32.25 31.169 32.0129 31.591 31.591C32.0129 31.169 32.25 30.5967 32.25 30C32.25 29.4033 32.0129 28.831 31.591 28.409C31.169 27.9871 30.5967 27.75 30 27.75Z" fill="#4788C7"/>
<path d="M30 10.5C29.6022 10.5 29.2206 10.658 28.9393 10.9393C28.658 11.2206 28.5 11.6022 28.5 12C28.5 12.3978 28.658 12.7794 28.9393 13.0607C29.2206 13.342 29.6022 13.5 30 13.5C30.3978 13.5 30.7794 13.342 31.0607 13.0607C31.342 12.7794 31.5 12.3978 31.5 12C31.5 11.6022 31.342 11.2206 31.0607 10.9393C30.7794 10.658 30.3978 10.5 30 10.5ZM30 46.5C29.6022 46.5 29.2206 46.658 28.9393 46.9393C28.658 47.2206 28.5 47.6022 28.5 48C28.5 48.3978 28.658 48.7794 28.9393 49.0607C29.2206 49.342 29.6022 49.5 30 49.5C30.3978 49.5 30.7794 49.342 31.0607 49.0607C31.342 48.7794 31.5 48.3978 31.5 48C31.5 47.6022 31.342 47.2206 31.0607 46.9393C30.7794 46.658 30.3978 46.5 30 46.5Z" fill="#98CCFD"/>
<path d="M48 28.5C47.6022 28.5 47.2206 28.658 46.9393 28.9393C46.658 29.2206 46.5 29.6022 46.5 30C46.5 30.3978 46.658 30.7794 46.9393 31.0607C47.2206 31.342 47.6022 31.5 48 31.5C48.3978 31.5 48.7794 31.342 49.0607 31.0607C49.342 30.7794 49.5 30.3978 49.5 30C49.5 29.6022 49.342 29.2206 49.0607 28.9393C48.7794 28.658 48.3978 28.5 48 28.5Z" fill="#98CCFD"/>
<path d="M12 28.5C11.6022 28.5 11.2206 28.658 10.9393 28.9393C10.658 29.2206 10.5 29.6022 10.5 30C10.5 30.3978 10.658 30.7794 10.9393 31.0607C11.2206 31.342 11.6022 31.5 12 31.5C12.3978 31.5 12.7794 31.342 13.0607 31.0607C13.342 30.7794 13.5 30.3978 13.5 30C13.5 29.6022 13.342 29.2206 13.0607 28.9393C12.7794 28.658 12.3978 28.5 12 28.5Z" fill="#98CCFD"/>
</svg>
